<svg xmlns="http://www.w3.org/2000/svg" viewBox="0 0 240 240" fill="none">
  <circle cx="120" cy="120" r="120" fill="#29B6F6"/>
  <path fill="#fff" d="M81.229 128.772l14.237 39.406s1.78 3.687 3.686 3.687 30.255-29.492 30.255-29.492l31.525-60.89L81.737 118.6l-.508 10.172z"/>
  <path fill="#b0bec5" d="M100.106 138.878l-2.733 29.046s-1.144 8.9 7.754 0 17.415-15.763 17.415-15.763"/>
  <path fill="#cfd8dc" d="M81.486 130.178l-17.8-5.467s-2.16-.878-1.446-2.856c.145-.396.397-.792 1.07-1.296 2.953-2.223 55.286-20.98 55.286-20.98s1.85-.763 3.147-.687c.505.024 1.025.223 1.404.74.18.245.307.563.382.982.05.276.073.663.073 1.15l.002.36-.016 1.56a533 533 0 0 1-2.707 30.78c-.275 2.39-.84 3.875-1.443 4.713-.565.785-1.273 1.065-1.775 1.17-1.5.318-3.997-.505-6.86-2.016l-1.36-.727c-5.562-2.952-21.902-11.53-27.014-14.324-.774-.423-2.42-1.315-.85-3.11 8.86-10.12 19.586-21.747 27.04-29.264.853-.862 1.676-3.062-1.15-1.768-8.85 4.033-35.53 23.26-39.12 25.555z"/>
</svg>
